<mxfile host="app.diagrams.net" modified="2020-10-17T20:22:55.989Z" agent="5.0 (Windows)" etag="KyVFrv8qPrpWNd5AyZml" version="13.8.0" type="github">
  <diagram id="prtHgNgQTEPvFCAcTncT" name="Page-1">
    <mxGraphModel dx="1695" dy="489" grid="1" gridSize="10" guides="1" tooltips="1" connect="1" arrows="1" fold="1" page="1" pageScale="1" pageWidth="827" pageHeight="1169" math="0" shadow="0">
      <root>
        <mxCell id="0" />
        <mxCell id="1" parent="0" />
        <mxCell id="6Qm8-WTqyjUOiurEXs0B-24" value="" style="shape=partialRectangle;html=1;whiteSpace=wrap;connectable=0;fillColor=none;top=0;left=0;bottom=0;right=0;overflow=hidden;" vertex="1" parent="1">
          <mxGeometry x="250" y="447.5" width="131" height="35" as="geometry" />
        </mxCell>
        <mxCell id="6Qm8-WTqyjUOiurEXs0B-28" value="1.3 Aplicativo de celular para uso do cliente" style="shape=partialRectangle;html=1;whiteSpace=wrap;connectable=0;fillColor=none;top=0;left=0;bottom=0;right=0;overflow=hidden;" vertex="1" parent="1">
          <mxGeometry x="210" y="387.5" width="131" height="35" as="geometry" />
        </mxCell>
        <mxCell id="6Qm8-WTqyjUOiurEXs0B-38" value="25" style="shape=partialRectangle;html=1;whiteSpace=wrap;connectable=0;fillColor=none;top=0;left=0;bottom=0;right=0;align=left;spacingLeft=6;overflow=hidden;" vertex="1" parent="1">
          <mxGeometry x="370" y="372.5" width="120" height="50" as="geometry" />
        </mxCell>
        <mxCell id="6Qm8-WTqyjUOiurEXs0B-39" value="" style="endArrow=classic;html=1;entryX=0.104;entryY=0.567;entryDx=0;entryDy=0;entryPerimeter=0;" edge="1" parent="1" target="6Qm8-WTqyjUOiurEXs0B-15">
          <mxGeometry width="50" height="50" relative="1" as="geometry">
            <mxPoint x="70" y="370" as="sourcePoint" />
            <mxPoint x="120" y="320" as="targetPoint" />
          </mxGeometry>
        </mxCell>
        <mxCell id="6Qm8-WTqyjUOiurEXs0B-51" value="" style="endArrow=classic;html=1;entryX=0.064;entryY=0.5;entryDx=0;entryDy=0;entryPerimeter=0;" edge="1" parent="1" target="6Qm8-WTqyjUOiurEXs0B-18">
          <mxGeometry width="50" height="50" relative="1" as="geometry">
            <mxPoint x="70" y="390" as="sourcePoint" />
            <mxPoint x="120" y="340" as="targetPoint" />
          </mxGeometry>
        </mxCell>
        <mxCell id="6Qm8-WTqyjUOiurEXs0B-52" value="" style="endArrow=classic;html=1;" edge="1" parent="1">
          <mxGeometry width="50" height="50" relative="1" as="geometry">
            <mxPoint x="70" y="415" as="sourcePoint" />
            <mxPoint x="210" y="410" as="targetPoint" />
          </mxGeometry>
        </mxCell>
        <mxCell id="6Qm8-WTqyjUOiurEXs0B-1" value="Nível 1" style="shape=table;html=1;whiteSpace=wrap;startSize=30;container=1;collapsible=0;childLayout=tableLayout;fixedRows=1;rowLines=0;fontStyle=1;align=center;" vertex="1" parent="1">
          <mxGeometry x="-160" y="290" width="230" height="150" as="geometry" />
        </mxCell>
        <mxCell id="6Qm8-WTqyjUOiurEXs0B-2" value="" style="shape=partialRectangle;html=1;whiteSpace=wrap;collapsible=0;dropTarget=0;pointerEvents=0;fillColor=none;top=0;left=0;bottom=1;right=0;points=[[0,0.5],[1,0.5]];portConstraint=eastwest;" vertex="1" parent="6Qm8-WTqyjUOiurEXs0B-1">
          <mxGeometry y="30" width="230" height="20" as="geometry" />
        </mxCell>
        <mxCell id="6Qm8-WTqyjUOiurEXs0B-3" value="&lt;div&gt;Nome do Item&lt;/div&gt;" style="shape=partialRectangle;html=1;whiteSpace=wrap;connectable=0;fillColor=none;top=0;left=0;bottom=0;right=0;overflow=hidden;" vertex="1" parent="6Qm8-WTqyjUOiurEXs0B-2">
          <mxGeometry width="170" height="20" as="geometry" />
        </mxCell>
        <mxCell id="6Qm8-WTqyjUOiurEXs0B-4" value="%" style="shape=partialRectangle;html=1;whiteSpace=wrap;connectable=0;fillColor=none;top=0;left=0;bottom=0;right=0;align=left;spacingLeft=6;overflow=hidden;" vertex="1" parent="6Qm8-WTqyjUOiurEXs0B-2">
          <mxGeometry x="170" width="60" height="20" as="geometry" />
        </mxCell>
        <mxCell id="6Qm8-WTqyjUOiurEXs0B-5" value="" style="shape=partialRectangle;html=1;whiteSpace=wrap;collapsible=0;dropTarget=0;pointerEvents=0;fillColor=none;top=0;left=0;bottom=0;right=0;points=[[0,0.5],[1,0.5]];portConstraint=eastwest;" vertex="1" parent="6Qm8-WTqyjUOiurEXs0B-1">
          <mxGeometry y="50" width="230" height="70" as="geometry" />
        </mxCell>
        <mxCell id="6Qm8-WTqyjUOiurEXs0B-6" value="1. Sistema de Rastreamento e Procedência de produtos com base em &lt;i&gt;blockchain&lt;/i&gt;" style="shape=partialRectangle;html=1;whiteSpace=wrap;connectable=0;fillColor=none;top=0;left=0;bottom=0;right=0;overflow=hidden;" vertex="1" parent="6Qm8-WTqyjUOiurEXs0B-5">
          <mxGeometry width="170" height="70" as="geometry" />
        </mxCell>
        <mxCell id="6Qm8-WTqyjUOiurEXs0B-7" value="100" style="shape=partialRectangle;html=1;whiteSpace=wrap;connectable=0;fillColor=none;top=0;left=0;bottom=0;right=0;align=left;spacingLeft=6;overflow=hidden;" vertex="1" parent="6Qm8-WTqyjUOiurEXs0B-5">
          <mxGeometry x="170" width="60" height="70" as="geometry" />
        </mxCell>
        <mxCell id="6Qm8-WTqyjUOiurEXs0B-8" value="" style="shape=partialRectangle;html=1;whiteSpace=wrap;collapsible=0;dropTarget=0;pointerEvents=0;fillColor=none;top=0;left=0;bottom=0;right=0;points=[[0,0.5],[1,0.5]];portConstraint=eastwest;" vertex="1" parent="6Qm8-WTqyjUOiurEXs0B-1">
          <mxGeometry y="120" width="230" height="30" as="geometry" />
        </mxCell>
        <mxCell id="6Qm8-WTqyjUOiurEXs0B-9" value="" style="shape=partialRectangle;html=1;whiteSpace=wrap;connectable=0;fillColor=none;top=0;left=0;bottom=0;right=0;overflow=hidden;" vertex="1" parent="6Qm8-WTqyjUOiurEXs0B-8">
          <mxGeometry width="170" height="30" as="geometry" />
        </mxCell>
        <mxCell id="6Qm8-WTqyjUOiurEXs0B-10" value="" style="shape=partialRectangle;html=1;whiteSpace=wrap;connectable=0;fillColor=none;top=0;left=0;bottom=0;right=0;align=left;spacingLeft=6;overflow=hidden;" vertex="1" parent="6Qm8-WTqyjUOiurEXs0B-8">
          <mxGeometry x="170" width="60" height="30" as="geometry" />
        </mxCell>
        <mxCell id="6Qm8-WTqyjUOiurEXs0B-11" value="&lt;div&gt;Nível 2&lt;/div&gt;" style="shape=table;html=1;whiteSpace=wrap;startSize=30;container=1;collapsible=0;childLayout=tableLayout;fixedRows=1;rowLines=0;fontStyle=1;align=center;" vertex="1" parent="1">
          <mxGeometry x="160" y="260" width="250" height="230" as="geometry" />
        </mxCell>
        <mxCell id="6Qm8-WTqyjUOiurEXs0B-12" value="" style="shape=partialRectangle;html=1;whiteSpace=wrap;collapsible=0;dropTarget=0;pointerEvents=0;fillColor=none;top=0;left=0;bottom=1;right=0;points=[[0,0.5],[1,0.5]];portConstraint=eastwest;" vertex="1" parent="6Qm8-WTqyjUOiurEXs0B-11">
          <mxGeometry y="30" width="250" height="20" as="geometry" />
        </mxCell>
        <mxCell id="6Qm8-WTqyjUOiurEXs0B-13" value="&lt;div&gt;Nome do Item&lt;/div&gt;" style="shape=partialRectangle;html=1;whiteSpace=wrap;connectable=0;fillColor=none;top=0;left=0;bottom=0;right=0;overflow=hidden;" vertex="1" parent="6Qm8-WTqyjUOiurEXs0B-12">
          <mxGeometry width="210" height="20" as="geometry" />
        </mxCell>
        <mxCell id="6Qm8-WTqyjUOiurEXs0B-14" value="%" style="shape=partialRectangle;html=1;whiteSpace=wrap;connectable=0;fillColor=none;top=0;left=0;bottom=0;right=0;align=left;spacingLeft=6;overflow=hidden;" vertex="1" parent="6Qm8-WTqyjUOiurEXs0B-12">
          <mxGeometry x="210" width="40" height="20" as="geometry" />
        </mxCell>
        <mxCell id="6Qm8-WTqyjUOiurEXs0B-15" value="" style="shape=partialRectangle;html=1;whiteSpace=wrap;collapsible=0;dropTarget=0;pointerEvents=0;fillColor=none;top=0;left=0;bottom=0;right=0;points=[[0,0.5],[1,0.5]];portConstraint=eastwest;" vertex="1" parent="6Qm8-WTqyjUOiurEXs0B-11">
          <mxGeometry y="50" width="250" height="30" as="geometry" />
        </mxCell>
        <mxCell id="6Qm8-WTqyjUOiurEXs0B-16" value="1.1 Wallet" style="shape=partialRectangle;html=1;whiteSpace=wrap;connectable=0;fillColor=none;top=0;left=0;bottom=0;right=0;overflow=hidden;" vertex="1" parent="6Qm8-WTqyjUOiurEXs0B-15">
          <mxGeometry width="210" height="30" as="geometry" />
        </mxCell>
        <mxCell id="6Qm8-WTqyjUOiurEXs0B-17" value="10" style="shape=partialRectangle;html=1;whiteSpace=wrap;connectable=0;fillColor=none;top=0;left=0;bottom=0;right=0;align=left;spacingLeft=6;overflow=hidden;" vertex="1" parent="6Qm8-WTqyjUOiurEXs0B-15">
          <mxGeometry x="210" width="40" height="30" as="geometry" />
        </mxCell>
        <mxCell id="6Qm8-WTqyjUOiurEXs0B-18" value="" style="shape=partialRectangle;html=1;whiteSpace=wrap;collapsible=0;dropTarget=0;pointerEvents=0;fillColor=none;top=0;left=0;bottom=0;right=0;points=[[0,0.5],[1,0.5]];portConstraint=eastwest;" vertex="1" parent="6Qm8-WTqyjUOiurEXs0B-11">
          <mxGeometry y="80" width="250" height="50" as="geometry" />
        </mxCell>
        <mxCell id="6Qm8-WTqyjUOiurEXs0B-19" value="1.2 Sistema CRM de gestão" style="shape=partialRectangle;html=1;whiteSpace=wrap;connectable=0;fillColor=none;top=0;left=0;bottom=0;right=0;overflow=hidden;" vertex="1" parent="6Qm8-WTqyjUOiurEXs0B-18">
          <mxGeometry width="210" height="50" as="geometry" />
        </mxCell>
        <mxCell id="6Qm8-WTqyjUOiurEXs0B-20" value="50" style="shape=partialRectangle;html=1;whiteSpace=wrap;connectable=0;fillColor=none;top=0;left=0;bottom=0;right=0;align=left;spacingLeft=6;overflow=hidden;" vertex="1" parent="6Qm8-WTqyjUOiurEXs0B-18">
          <mxGeometry x="210" width="40" height="50" as="geometry" />
        </mxCell>
        <mxCell id="6Qm8-WTqyjUOiurEXs0B-86" value="" style="shape=curlyBracket;whiteSpace=wrap;html=1;rounded=1;" vertex="1" parent="1">
          <mxGeometry x="470" y="570" width="20" height="210" as="geometry" />
        </mxCell>
        <mxCell id="6Qm8-WTqyjUOiurEXs0B-88" value="" style="shape=curlyBracket;whiteSpace=wrap;html=1;rounded=1;" vertex="1" parent="1">
          <mxGeometry x="470" y="314.5" width="20" height="225.5" as="geometry" />
        </mxCell>
        <mxCell id="6Qm8-WTqyjUOiurEXs0B-89" value="" style="shape=curlyBracket;whiteSpace=wrap;html=1;rounded=1;" vertex="1" parent="1">
          <mxGeometry x="470" y="164.5" width="20" height="130" as="geometry" />
        </mxCell>
        <mxCell id="6Qm8-WTqyjUOiurEXs0B-53" value="&lt;div&gt;Nível 3&lt;br&gt;&lt;/div&gt;" style="shape=table;html=1;whiteSpace=wrap;startSize=30;container=1;collapsible=0;childLayout=tableLayout;fixedRows=1;rowLines=0;fontStyle=1;align=center;" vertex="1" parent="1">
          <mxGeometry x="490" y="125.5" width="290" height="854.5" as="geometry" />
        </mxCell>
        <mxCell id="6Qm8-WTqyjUOiurEXs0B-80" value="" style="shape=partialRectangle;html=1;whiteSpace=wrap;collapsible=0;dropTarget=0;pointerEvents=0;fillColor=none;top=0;left=0;bottom=1;right=0;points=[[0,0.5],[1,0.5]];portConstraint=eastwest;" vertex="1" parent="6Qm8-WTqyjUOiurEXs0B-53">
          <mxGeometry y="30" width="290" height="150" as="geometry" />
        </mxCell>
        <mxCell id="6Qm8-WTqyjUOiurEXs0B-81" value="1.1.1 Função Depósito (Consultar / Criar address novo)&lt;br&gt;&lt;br&gt;1.1.2 Função Envio (realiza o envio de valores para outro address)&lt;br&gt;&lt;br&gt;1.1.3 Função Consulta Saldo da Carteira&lt;br&gt;&lt;br&gt;1.1.4 Função criar assinatura" style="shape=partialRectangle;html=1;whiteSpace=wrap;connectable=0;fillColor=none;top=0;left=0;bottom=0;right=0;overflow=hidden;" vertex="1" parent="6Qm8-WTqyjUOiurEXs0B-80">
          <mxGeometry width="240" height="150" as="geometry" />
        </mxCell>
        <mxCell id="6Qm8-WTqyjUOiurEXs0B-82" value="2,5%&lt;br&gt;&lt;br&gt;&lt;br&gt;2,5%&lt;br&gt;&lt;br&gt;&lt;br&gt;2,5%&lt;br&gt;&lt;br&gt;&lt;br&gt;2,5%" style="shape=partialRectangle;html=1;whiteSpace=wrap;connectable=0;fillColor=none;top=0;left=0;bottom=0;right=0;align=left;spacingLeft=6;overflow=hidden;" vertex="1" parent="6Qm8-WTqyjUOiurEXs0B-80">
          <mxGeometry x="240" width="50" height="150" as="geometry" />
        </mxCell>
        <mxCell id="6Qm8-WTqyjUOiurEXs0B-99" value="" style="shape=partialRectangle;html=1;whiteSpace=wrap;collapsible=0;dropTarget=0;pointerEvents=0;fillColor=none;top=0;left=0;bottom=1;right=0;points=[[0,0.5],[1,0.5]];portConstraint=eastwest;" vertex="1" parent="6Qm8-WTqyjUOiurEXs0B-53">
          <mxGeometry y="180" width="290" height="255" as="geometry" />
        </mxCell>
        <mxCell id="6Qm8-WTqyjUOiurEXs0B-100" value="&lt;br&gt;&lt;br&gt;1.2.1 Criação das chamadas essenciais do sistema para manipulação dos dados (dos contratos, produtos, mercadoria e etc.) &lt;br&gt;&lt;br&gt;1.2.2 Integração da DB SQLite da empresa com o protótipo&lt;br&gt;&lt;br&gt;1.2.3 Implementação dos métodos e classes que serão utilizados para o rastreamento e autenticação&lt;i&gt; &lt;/i&gt;por meio da &lt;i&gt;blockchain&lt;/i&gt; e também para gerenciar o fluxo entre a DB e a &lt;i&gt;blockchain&lt;/i&gt;&lt;br&gt;&lt;i&gt;&lt;/i&gt;" style="shape=partialRectangle;html=1;whiteSpace=wrap;connectable=0;fillColor=none;top=0;left=0;bottom=0;right=0;overflow=hidden;" vertex="1" parent="6Qm8-WTqyjUOiurEXs0B-99">
          <mxGeometry width="240" height="255" as="geometry" />
        </mxCell>
        <mxCell id="6Qm8-WTqyjUOiurEXs0B-101" value="&lt;br&gt;30%&lt;br&gt;&lt;br&gt;&lt;br&gt;&lt;br&gt;&lt;br&gt;5%&lt;br&gt;&lt;br&gt;&lt;br&gt;&lt;br&gt;15%" style="shape=partialRectangle;html=1;whiteSpace=wrap;connectable=0;fillColor=none;top=0;left=0;bottom=0;right=0;align=left;spacingLeft=6;overflow=hidden;" vertex="1" parent="6Qm8-WTqyjUOiurEXs0B-99">
          <mxGeometry x="240" width="50" height="255" as="geometry" />
        </mxCell>
        <mxCell id="6Qm8-WTqyjUOiurEXs0B-54" value="" style="shape=partialRectangle;html=1;whiteSpace=wrap;collapsible=0;dropTarget=0;pointerEvents=0;fillColor=none;top=0;left=0;bottom=1;right=0;points=[[0,0.5],[1,0.5]];portConstraint=eastwest;" vertex="1" parent="6Qm8-WTqyjUOiurEXs0B-53">
          <mxGeometry y="435" width="290" height="235" as="geometry" />
        </mxCell>
        <mxCell id="6Qm8-WTqyjUOiurEXs0B-55" value="&lt;div&gt;&lt;br&gt;1.3.1 Integração da DB SQLite da empresa com o protótipo do aplicativo&lt;/div&gt;&lt;div&gt;&lt;br&gt;&lt;/div&gt;&lt;div&gt;&lt;br&gt;&lt;br&gt;1.3.2 Criação das chamadas essenciais do aplicativo (login, consulta de produtos, acompanhamento de entregas, etc.)&lt;br&gt;&lt;/div&gt;&lt;br&gt;1.3.3 Implementação dos métodos e classes que serão utilizados para o rastreamento e autenticação&lt;i&gt; &lt;/i&gt;dos produtos&lt;i&gt; &lt;/i&gt;por meio da &lt;i&gt;blockchain &lt;/i&gt;no aplicativo&lt;i&gt;&lt;br&gt;&lt;/i&gt;" style="shape=partialRectangle;html=1;whiteSpace=wrap;connectable=0;fillColor=none;top=0;left=0;bottom=0;right=0;overflow=hidden;" vertex="1" parent="6Qm8-WTqyjUOiurEXs0B-54">
          <mxGeometry width="240" height="235" as="geometry" />
        </mxCell>
        <mxCell id="6Qm8-WTqyjUOiurEXs0B-56" value="5%&lt;br&gt;&lt;br&gt;&lt;br&gt;&lt;br&gt;&lt;br&gt;15%&lt;br&gt;&lt;br&gt;&lt;br&gt;&lt;br&gt;15%" style="shape=partialRectangle;html=1;whiteSpace=wrap;connectable=0;fillColor=none;top=0;left=0;bottom=0;right=0;align=left;spacingLeft=6;overflow=hidden;" vertex="1" parent="6Qm8-WTqyjUOiurEXs0B-54">
          <mxGeometry x="240" width="50" height="235" as="geometry" />
        </mxCell>
        <mxCell id="6Qm8-WTqyjUOiurEXs0B-60" value="" style="shape=partialRectangle;html=1;whiteSpace=wrap;collapsible=0;dropTarget=0;pointerEvents=0;fillColor=none;top=0;left=0;bottom=0;right=0;points=[[0,0.5],[1,0.5]];portConstraint=eastwest;" vertex="1" parent="6Qm8-WTqyjUOiurEXs0B-53">
          <mxGeometry y="670" width="290" height="160" as="geometry" />
        </mxCell>
        <mxCell id="6Qm8-WTqyjUOiurEXs0B-61" value="1.4.1 Criação do contrato inteligente que dará origem a rede SCB na blockchain do Ethereum&lt;br&gt;&lt;br&gt;1.2.2 Distribuição dos tokens em 1000 endereços públicos" style="shape=partialRectangle;html=1;whiteSpace=wrap;connectable=0;fillColor=none;top=0;left=0;bottom=0;right=0;overflow=hidden;" vertex="1" parent="6Qm8-WTqyjUOiurEXs0B-60">
          <mxGeometry width="240" height="160" as="geometry" />
        </mxCell>
        <mxCell id="6Qm8-WTqyjUOiurEXs0B-62" value="14%&lt;br&gt;&lt;br&gt;&lt;br&gt;&lt;br&gt;&lt;br&gt;&lt;div&gt;1%&lt;/div&gt;" style="shape=partialRectangle;html=1;whiteSpace=wrap;connectable=0;fillColor=none;top=0;left=0;bottom=0;right=0;align=left;spacingLeft=6;overflow=hidden;" vertex="1" parent="6Qm8-WTqyjUOiurEXs0B-60">
          <mxGeometry x="240" width="50" height="160" as="geometry" />
        </mxCell>
        <mxCell id="6Qm8-WTqyjUOiurEXs0B-57" value="" style="shape=partialRectangle;html=1;whiteSpace=wrap;collapsible=0;dropTarget=0;pointerEvents=0;fillColor=none;top=0;left=0;bottom=0;right=0;points=[[0,0.5],[1,0.5]];portConstraint=eastwest;" vertex="1" parent="6Qm8-WTqyjUOiurEXs0B-53">
          <mxGeometry y="830" width="290" height="25" as="geometry" />
        </mxCell>
        <mxCell id="6Qm8-WTqyjUOiurEXs0B-58" value="" style="shape=partialRectangle;html=1;whiteSpace=wrap;connectable=0;fillColor=none;top=0;left=0;bottom=0;right=0;overflow=hidden;" vertex="1" parent="6Qm8-WTqyjUOiurEXs0B-57">
          <mxGeometry width="240" height="25" as="geometry" />
        </mxCell>
        <mxCell id="6Qm8-WTqyjUOiurEXs0B-59" value="" style="shape=partialRectangle;html=1;whiteSpace=wrap;connectable=0;fillColor=none;top=0;left=0;bottom=0;right=0;align=left;spacingLeft=6;overflow=hidden;" vertex="1" parent="6Qm8-WTqyjUOiurEXs0B-57">
          <mxGeometry x="240" width="50" height="25" as="geometry" />
        </mxCell>
        <mxCell id="6Qm8-WTqyjUOiurEXs0B-92" value="" style="curved=1;endArrow=classic;html=1;exitX=0.936;exitY=0.467;exitDx=0;exitDy=0;exitPerimeter=0;entryX=0.1;entryY=0.5;entryDx=0;entryDy=0;entryPerimeter=0;" edge="1" parent="1" source="6Qm8-WTqyjUOiurEXs0B-15" target="6Qm8-WTqyjUOiurEXs0B-89">
          <mxGeometry width="50" height="50" relative="1" as="geometry">
            <mxPoint x="410" y="310" as="sourcePoint" />
            <mxPoint x="460" y="260" as="targetPoint" />
            <Array as="points">
              <mxPoint x="460" y="310" />
              <mxPoint x="410" y="260" />
            </Array>
          </mxGeometry>
        </mxCell>
        <mxCell id="6Qm8-WTqyjUOiurEXs0B-93" value="" style="curved=1;endArrow=classic;html=1;exitX=0.936;exitY=0.467;exitDx=0;exitDy=0;exitPerimeter=0;entryX=0.1;entryY=0.5;entryDx=0;entryDy=0;entryPerimeter=0;" edge="1" parent="1">
          <mxGeometry width="50" height="50" relative="1" as="geometry">
            <mxPoint x="394" y="324.01" as="sourcePoint" />
            <mxPoint x="472" y="229.5" as="targetPoint" />
            <Array as="points">
              <mxPoint x="460" y="310" />
              <mxPoint x="410" y="260" />
            </Array>
          </mxGeometry>
        </mxCell>
        <mxCell id="6Qm8-WTqyjUOiurEXs0B-94" value="" style="endArrow=classic;html=1;entryX=0.1;entryY=0.5;entryDx=0;entryDy=0;entryPerimeter=0;" edge="1" parent="1" target="6Qm8-WTqyjUOiurEXs0B-88">
          <mxGeometry width="50" height="50" relative="1" as="geometry">
            <mxPoint x="400" y="364.5" as="sourcePoint" />
            <mxPoint x="450" y="314.5" as="targetPoint" />
          </mxGeometry>
        </mxCell>
        <mxCell id="6Qm8-WTqyjUOiurEXs0B-95" value="" style="endArrow=classic;html=1;entryX=0.1;entryY=0.5;entryDx=0;entryDy=0;entryPerimeter=0;" edge="1" parent="1" target="6Qm8-WTqyjUOiurEXs0B-86">
          <mxGeometry width="50" height="50" relative="1" as="geometry">
            <mxPoint x="398" y="397.5" as="sourcePoint" />
            <mxPoint x="470" y="412.5" as="targetPoint" />
          </mxGeometry>
        </mxCell>
        <mxCell id="6Qm8-WTqyjUOiurEXs0B-103" value="1.4 Criação do contrato inteligente e cunhagem dos tokens" style="shape=partialRectangle;html=1;whiteSpace=wrap;connectable=0;fillColor=none;top=0;left=0;bottom=0;right=0;overflow=hidden;" vertex="1" parent="1">
          <mxGeometry x="190" y="430" width="160" height="50" as="geometry" />
        </mxCell>
        <mxCell id="6Qm8-WTqyjUOiurEXs0B-104" value="15" style="shape=partialRectangle;html=1;whiteSpace=wrap;connectable=0;fillColor=none;top=0;left=0;bottom=0;right=0;align=left;spacingLeft=6;overflow=hidden;" vertex="1" parent="1">
          <mxGeometry x="370" y="422.5" width="120" height="50" as="geometry" />
        </mxCell>
        <mxCell id="6Qm8-WTqyjUOiurEXs0B-105" value="" style="shape=curlyBracket;whiteSpace=wrap;html=1;rounded=1;" vertex="1" parent="1">
          <mxGeometry x="470" y="810" width="20" height="160" as="geometry" />
        </mxCell>
        <mxCell id="6Qm8-WTqyjUOiurEXs0B-106" value="" style="endArrow=classic;html=1;entryX=0.1;entryY=0.5;entryDx=0;entryDy=0;entryPerimeter=0;" edge="1" parent="1" target="6Qm8-WTqyjUOiurEXs0B-105">
          <mxGeometry width="50" height="50" relative="1" as="geometry">
            <mxPoint x="390" y="460" as="sourcePoint" />
            <mxPoint x="470" y="575" as="targetPoint" />
          </mxGeometry>
        </mxCell>
      </root>
    </mxGraphModel>
  </diagram>
</mxfile>
